<svg xmlns="http://www.w3.org/2000/svg" version="1.1" xmlns:xlink="http://www.w3.org/1999/xlink" xmlns:svgjs="http://svgjs.dev/svgjs" width="1000" height="1125" viewBox="0 0 1000 1125"><g transform="matrix(1,0,0,1,1.7053025658242404e-13,0)"><svg viewBox="0 0 320 360" data-background-color="#ffffff" preserveAspectRatio="xMidYMid meet" height="1125" width="1000" xmlns="http://www.w3.org/2000/svg" xmlns:xlink="http://www.w3.org/1999/xlink"><g id="tight-bounds" transform="matrix(1,0,0,1,0,0)"><svg viewBox="0 0 320 360" height="360" width="320"><g><svg></svg></g><g><svg viewBox="0 0 320 360" height="360" width="320"><g><path xmlns="http://www.w3.org/2000/svg" d="M20.961 227.22l3.726 4.658-1.863-6.056c-0.466-2.795-3.726 0.466-1.863 1.398M25.153 224.425c1.397 2.329 2.795 4.658 2.795 6.987 0 3.261 2.795 4.658 5.123 5.589-3.261-3.726-5.124-13.974-7.918-12.576M204.017 26.929c7.918 0 15.371-0.932 23.756 0.931 20.495 5.124 37.729 15.371 49.374 29.811l32.606 52.169c1.397 13.042 4.192 27.482 3.726 43.319 3.261 0 2.795-4.658 6.521-5.59-3.726 9.316-5.59 20.961-6.521 34.469-2.329-7.453 0-18.632 0.466-24.687-3.261 5.124-5.124 1.397-5.124-0.932 0.466-3.726-1.397-3.261-2.795-4.658-5.124-4.658-8.384-9.782-12.11-17.7 2.329-6.055 2.795-14.905-4.658-19.563-2.329-1.397-5.124-3.726-6.521-7.453-1.863-5.124-5.124-11.179-4.193-19.097 0.466-2.329-6.987 5.124-11.179 1.863-18.166-12.576-36.332-27.016-58.224-39.127-11.645 0-20.029-4.192-24.221-9.316-3.726-4.658-0.932-10.713 4.658-11.179 3.261 0 6.987-0.932 9.782 0.932 0.466-1.863 2.329-4.192 4.657-4.192M157.904 16.215l0.932 0.466c4.658 0.932 6.987 7.453 12.11 5.124 0 3.261 0.466 6.521-0.466 8.85-1.397 3.726-5.59 3.726-8.85 3.726-31.208-1.863-49.374 11.179-68.471 22.358-5.124 3.261-10.713 5.59-14.906 9.782-20.029 18.632-41.921 35.866-47.045 70.335l-4.192 38.195c-0.466 4.192-5.124 8.384-4.192 13.508l3.26 22.824c-3.261-3.261-5.124 0.932-4.192 2.795 0.466 1.397 2.329 6.055 5.124 1.863 3.726 6.987 7.453 20.495 12.576 26.55 15.837 18.632 36.332 35.4 53.101 52.169 4.192-0.932 7.453-0.932 8.384-3.727 1.397 2.795-1.397 5.59-3.726 6.056 7.453 4.658 15.837 8.85 27.016 9.781 14.44 0.932 27.948 3.261 40.524 6.522 6.521-1.863 13.042-2.795 20.029-3.261 2.329 0 3.726-3.726 6.521-4.658l0.466-4.658c2.795 4.192 2.329-1.397 0.466-4.192 3.261 2.795 4.192 5.124 5.589 6.987 0-1.397 3.726-6.521 3.727-0.466l0.931-6.055c1.397-0.932 1.863 5.124 3.261 0.931 1.397-4.192 4.192-0.932 6.987-2.329-0.932 1.863-0.466 5.59 2.794 3.261l3.727-3.261c2.329 5.59 6.055 3.261 7.918 2.329 20.495-13.042 40.99-28.413 60.553-43.784l-0.466 6.055 2.329-7.453c2.329 2.329 4.192 0.466 5.124-0.931 2.795-4.658 6.521-9.316 12.577-13.508-7.453 20.029-16.303 35.866-27.482 48.908l-4.658 5.59c0 3.261-0.932 7.453-4.658 7.918-1.863 0.466-5.59-0.932-8.384 1.863-1.397 1.863 3.261 5.59-0.466 2.795-3.261-2.329-6.521 0-10.248 0.932-2.795 0.932 1.863 3.726 2.795 5.589 0.932 1.863 1.863 3.726 1.398 6.056l-5.124-5.59c-6.055 3.261-9.782 9.316-14.906 13.974-2.329 1.863-1.397 5.124-1.397 7.918-3.261 0-6.987-0.932-8.85 0.932-1.397 1.863-0.932 4.658-0.932 7.453-4.658-0.466-5.124-7.453-9.315-6.056-4.192 0.932-8.85 1.397-12.577 3.727 2.795 5.59-4.658 2.329-3.726 3.26-6.987-4.192-13.042-7.453-20.495-4.658-15.837-5.124-35.4-2.795-49.84-0.931 0-2.329 0.466-4.658-0.466-5.124-0.932 2.329-3.726 1.397-3.26 1.397-8.85-6.055-17.7-9.782-27.016-14.905-8.384 0.932-16.303-3.261-18.632-5.59-6.521-6.055-13.974-2.795-20.029-4.192-13.042-3.261-17.7-16.769-19.098-26.084-0.932-4.658-4.658-6.521-6.055-6.056-6.055-19.563-15.371-37.263-22.824-55.429-1.863-4.658-1.397-9.316-1.397-14.44 2.329 0.932 4.658 0.466 4.192-2.794-2.329-15.371-7.918-27.016-13.974-38.195 3.261-15.837 3.726-34.469 11.179-48.443 6.521-12.576 18.632-19.098 27.016-29.811 2.795-3.726 2.795-8.85 5.59-12.11 9.316-9.316 18.632-19.098 28.879-27.482 4.658-3.726 10.247 0 17.234-1.397 2.329-8.384 11.645-15.837 20.495-13.508 3.726 0.932 11.179-8.85 13.508-9.782 3.726-1.397 1.863 3.726 1.863 6.987 8.85-6.987 20.961-10.713 32.14-14.906" fill="#ff0000" fill-rule="nonzero" stroke="none" stroke-width="1" stroke-linecap="butt" stroke-linejoin="miter" stroke-miterlimit="10" stroke-dasharray="" stroke-dashoffset="0" font-family="none" font-weight="none" font-size="none" text-anchor="none" style="mix-blend-mode: normal" data-fill-palette-color="tertiary"></path></g><g transform="matrix(1,0,0,1,64,149.08388653517525)"><svg viewBox="0 0 192 61.83222692964951" height="61.83222692964951" width="192"><g><svg viewBox="0 0 192 61.83222692964951" height="61.83222692964951" width="192"><g><svg viewBox="0 0 192 61.83222692964951" height="61.83222692964951" width="192"><g><svg viewBox="0 0 192 61.83222692964951" height="61.83222692964951" width="192"><g id="textblocktransform"><svg viewBox="0 0 192 61.83222692964951" height="61.83222692964951" width="192" id="textblock"><g><svg viewBox="0 0 192 35.79985063480209" height="35.79985063480209" width="192"><g transform="matrix(1,0,0,1,0,0)"><svg width="192" viewBox="3 -37.45000076293945 200.82000732421875 37.45000076293945" height="35.79985063480209" data-palette-color="#ff0000"><path d="M18.05 0L3 0 3-35.05 15.7-35.05Q17.25-35.05 18.3-33.98 19.35-32.9 19.35-31.45L19.35-31.45 19.35-21.5Q20.35-21.15 21-20.2 21.65-19.25 21.65-18.15L21.65-18.15 21.65-3.65Q21.65-2.1 20.6-1.05 19.55 0 18.05 0L18.05 0ZM7.7-30.4L7.7-21.7 12.85-21.7Q13.6-21.7 14.15-22.25 14.7-22.8 14.7-23.5L14.7-23.5 14.7-28.6Q14.7-29.35 14.15-29.88 13.6-30.4 12.85-30.4L12.85-30.4 7.7-30.4ZM7.7-17.1L7.7-4.65 15.25-4.65Q15.95-4.65 16.48-5.18 17-5.7 17-6.5L17-6.5 17-15.3Q17-16 16.48-16.55 15.95-17.1 15.25-17.1L15.25-17.1 7.7-17.1ZM39.25 0L28.8 0Q27.3 0 26.22-1.07 25.15-2.15 25.15-3.65L25.15-3.65 25.15-21.4Q25.15-22.9 26.22-23.95 27.3-25 28.8-25L28.8-25 35.6-25Q37.15-25 38.2-23.95 39.25-22.9 39.25-21.4L39.25-21.4 39.25-13.8Q39.25-12.3 38.2-11.23 37.15-10.15 35.6-10.15L35.6-10.15 29.85-10.15 29.85-6.5Q29.85-5.75 30.37-5.23 30.9-4.7 31.7-4.7L31.7-4.7 38.2-4.7 39.25 0ZM29.85-18.5L29.85-14.85 32.75-14.85Q33.5-14.85 34.02-15.38 34.55-15.9 34.55-16.65L34.55-16.65 34.55-18.5Q34.55-19.25 34.02-19.78 33.5-20.3 32.75-20.3L32.75-20.3 31.7-20.3Q30.9-20.3 30.37-19.78 29.85-19.25 29.85-18.5L29.85-18.5ZM47.15 0L42.45 0 42.45-25 52.9-25Q54.35-25 55.45-23.95 56.55-22.9 56.55-21.4L56.55-21.4 56.55 0 51.85 0 51.85-18.5Q51.85-19.3 51.3-19.8 50.75-20.3 50.05-20.3L50.05-20.3 47.15-20.3 47.15 0ZM73.99 0L69.34 0 69.34-35 84.34-35Q85.79-35 86.87-33.95 87.94-32.9 87.94-31.4L87.94-31.4 87.94-20.65Q87.94-19.15 86.87-18.1 85.79-17.05 84.34-17.05L84.34-17.05 73.99-17.05 73.99 0ZM73.99-30.35L73.99-21.7 81.49-21.7Q82.24-21.7 82.77-22.23 83.29-22.75 83.29-23.5L83.29-23.5 83.29-28.6Q83.29-29.3 82.77-29.83 82.24-30.35 81.49-30.35L81.49-30.35 73.99-30.35ZM105.64 0L95.19 0Q93.69 0 92.61-1.07 91.54-2.15 91.54-3.65L91.54-3.65 91.54-21.4Q91.54-22.9 92.61-23.95 93.69-25 95.19-25L95.19-25 101.99-25Q103.54-25 104.59-23.95 105.64-22.9 105.64-21.4L105.64-21.4 105.64-13.8Q105.64-12.3 104.59-11.23 103.54-10.15 101.99-10.15L101.99-10.15 96.24-10.15 96.24-6.5Q96.24-5.75 96.76-5.23 97.29-4.7 98.09-4.7L98.09-4.7 104.59-4.7 105.64 0ZM96.24-18.5L96.24-14.85 99.14-14.85Q99.89-14.85 100.41-15.38 100.94-15.9 100.94-16.65L100.94-16.65 100.94-18.5Q100.94-19.25 100.41-19.78 99.89-20.3 99.14-20.3L99.14-20.3 98.09-20.3Q97.29-20.3 96.76-19.78 96.24-19.25 96.24-18.5L96.24-18.5ZM114.34 0L109.64 0 109.64-36.4 114.34-37.45 114.34-25 120.29-25 119.19-20.3 114.34-20.3 114.34 0ZM135.88 0L125.43 0Q123.93 0 122.86-1.07 121.78-2.15 121.78-3.65L121.78-3.65 121.78-21.4Q121.78-22.9 122.86-23.95 123.93-25 125.43-25L125.43-25 132.23-25Q133.78-25 134.83-23.95 135.88-22.9 135.88-21.4L135.88-21.4 135.88-13.8Q135.88-12.3 134.83-11.23 133.78-10.15 132.23-10.15L132.23-10.15 126.48-10.15 126.48-6.5Q126.48-5.75 127.01-5.23 127.53-4.7 128.33-4.7L128.33-4.7 134.83-4.7 135.88 0ZM126.48-18.5L126.48-14.85 129.38-14.85Q130.13-14.85 130.66-15.38 131.18-15.9 131.18-16.65L131.18-16.65 131.18-18.5Q131.18-19.25 130.66-19.78 130.13-20.3 129.38-20.3L129.38-20.3 128.33-20.3Q127.53-20.3 127.01-19.78 126.48-19.25 126.48-18.5L126.48-18.5ZM143.08 0L138.38 0 138.38-25 148.83-25Q150.33-25 151.41-23.93 152.48-22.85 152.48-21.35L152.48-21.35 152.48-15.9 147.78-16.95 147.78-18.45Q147.78-19.2 147.26-19.75 146.73-20.3 145.98-20.3L145.98-20.3 143.08-20.3 143.08 0ZM165.43 0L158.58 0Q157.08 0 156.03-1.07 154.98-2.15 154.98-3.65L154.98-3.65 154.98-7.8 159.63-7.8 159.63-6.5Q159.63-5.75 160.18-5.23 160.73-4.7 161.48-4.7L161.48-4.7 162.53-4.7Q163.28-4.7 163.8-5.23 164.33-5.75 164.33-6.5L164.33-6.5 164.33-8.35Q164.33-9.1 163.8-9.63 163.28-10.15 162.53-10.15L162.53-10.15 158.58-10.15Q157.08-10.15 156.03-11.23 154.98-12.3 154.98-13.8L154.98-13.8 154.98-21.35Q154.98-22.85 156.03-23.93 157.08-25 158.58-25L158.58-25 165.43-25Q166.93-25 167.98-23.93 169.03-22.85 169.03-21.35L169.03-21.35 169.03-17.2 164.33-17.2 164.33-18.5Q164.33-19.25 163.8-19.78 163.28-20.3 162.53-20.3L162.53-20.3 161.48-20.3Q160.73-20.3 160.18-19.78 159.63-19.25 159.63-18.5L159.63-18.5 159.63-16.65Q159.63-15.9 160.18-15.38 160.73-14.85 161.48-14.85L161.48-14.85 165.43-14.85Q166.93-14.85 167.98-13.78 169.03-12.7 169.03-11.2L169.03-11.2 169.03-3.45Q168.98-2.05 167.93-1.03 166.88 0 165.43 0L165.43 0ZM182.88 0L176.08 0Q174.53 0 173.48-1.07 172.43-2.15 172.43-3.65L172.43-3.65 172.43-21.35Q172.43-22.85 173.48-23.93 174.53-25 176.08-25L176.08-25 182.88-25Q184.38-25 185.43-23.93 186.48-22.85 186.48-21.35L186.48-21.35 186.48-3.65Q186.48-2.15 185.43-1.07 184.38 0 182.88 0L182.88 0ZM178.93-4.7L178.93-4.7 179.98-4.7Q180.73-4.7 181.28-5.23 181.83-5.75 181.83-6.5L181.83-6.5 181.83-18.5Q181.83-19.25 181.28-19.78 180.73-20.3 179.98-20.3L179.98-20.3 178.93-20.3Q178.18-20.3 177.65-19.78 177.13-19.25 177.13-18.5L177.13-18.5 177.13-6.5Q177.13-5.75 177.65-5.23 178.18-4.7 178.93-4.7ZM194.42 0L189.72 0 189.72-25 200.17-25Q201.62-25 202.72-23.95 203.82-22.9 203.82-21.4L203.82-21.4 203.82 0 199.12 0 199.12-18.5Q199.12-19.3 198.57-19.8 198.02-20.3 197.32-20.3L197.32-20.3 194.42-20.3 194.42 0Z" opacity="1" transform="matrix(1,0,0,1,0,0)" fill="#ff0000" class="wordmark-text-0" data-fill-palette-color="primary" id="text-0"></path></svg></g></svg></g><g transform="matrix(1,0,0,1,0,41.02390803883495)"><svg viewBox="0 0 192 20.808318890814558" height="20.808318890814558" width="192"><g transform="matrix(1,0,0,1,0,0)"><svg width="192" viewBox="2.440000057220459 -37.54999923706055 422.5799865722656 45.79999923706055" height="20.808318890814558" data-palette-color="#ca3433"><path d="M28.54-6.35L28.54 0 11.33 0Q10.01 0 8.45-0.46 6.88-0.93 5.55-1.99 4.22-3.05 3.33-4.75 2.44-6.45 2.44-8.91L2.44-8.91 2.44-17.5Q2.44-18.41 2.65-19.41 2.86-20.41 3.3-21.4 3.74-22.39 4.43-23.29 5.13-24.19 6.12-24.88 7.1-25.56 8.4-25.98 9.69-26.39 11.33-26.39L11.33-26.39 28.54-26.39 28.54-20.04 11.33-20.04Q10.08-20.04 9.44-19.41 8.79-18.77 8.79-17.46L8.79-17.46 8.79-8.91Q8.79-7.67 9.45-7.01 10.11-6.35 11.38-6.35L11.38-6.35 28.54-6.35ZM62.3-17.5L62.3-8.91Q62.3-7.28 61.89-5.97 61.47-4.66 60.79-3.67 60.1-2.69 59.2-1.99 58.3-1.29 57.31-0.85 56.32-0.42 55.31-0.21 54.29 0 53.39 0L53.39 0 41.94 0Q40.62 0 39.06-0.46 37.5-0.93 36.17-1.99 34.84-3.05 33.95-4.75 33.05-6.45 33.05-8.91L33.05-8.91 33.05-17.5Q33.05-19.95 33.95-21.64 34.84-23.34 36.17-24.4 37.5-25.46 39.06-25.93 40.62-26.39 41.94-26.39L41.94-26.39 53.39-26.39Q55.83-26.39 57.54-25.51 59.25-24.63 60.3-23.3 61.35-21.97 61.83-20.41 62.3-18.85 62.3-17.5L62.3-17.5ZM55.95-8.91L55.95-17.46Q55.95-18.77 55.3-19.41 54.64-20.04 53.39-20.04L53.39-20.04 41.99-20.04Q40.72-20.04 40.06-19.4 39.4-18.75 39.4-17.5L39.4-17.5 39.4-8.91Q39.4-7.67 40.06-7.01 40.72-6.35 41.99-6.35L41.99-6.35 53.39-6.35Q54.69-6.35 55.32-7.01 55.95-7.67 55.95-8.91L55.95-8.91ZM96.65-37.55L96.65-8.91Q96.65-7.28 96.24-5.97 95.82-4.66 95.14-3.67 94.45-2.69 93.55-1.99 92.65-1.29 91.66-0.85 90.67-0.42 89.66-0.21 88.64 0 87.74 0L87.74 0 76.29 0Q74.65 0 73.36-0.42 72.07-0.83 71.08-1.53 70.09-2.22 69.39-3.13 68.7-4.03 68.26-5.02 67.82-6.01 67.61-7.02 67.4-8.03 67.4-8.91L67.4-8.91 67.4-17.5Q67.4-19.95 68.29-21.64 69.18-23.34 70.52-24.4 71.85-25.46 73.41-25.93 74.97-26.39 76.29-26.39L76.29-26.39 87.74-26.39 87.74-20.04 76.34-20.04Q75.07-20.04 74.41-19.4 73.75-18.75 73.75-17.5L73.75-17.5 73.75-8.96Q73.75-7.67 74.4-7.01 75.04-6.35 76.29-6.35L76.29-6.35 87.74-6.35Q89.03-6.35 89.67-7.01 90.3-7.67 90.3-8.91L90.3-8.91 90.3-37.55 96.65-37.55ZM131.1-17.65L131.1-17.65Q131.1-16.33 130.63-14.81 130.17-13.28 129.13-11.98 128.09-10.67 126.42-9.79 124.75-8.91 122.36-8.91L122.36-8.91 110.91-8.91 110.91-14.94 122.36-14.94Q123.65-14.94 124.36-15.73 125.07-16.53 125.07-17.7L125.07-17.7Q125.07-18.95 124.27-19.65 123.48-20.36 122.36-20.36L122.36-20.36 110.91-20.36Q109.61-20.36 108.9-19.57 108.2-18.77 108.2-17.6L108.2-17.6 108.2-8.74Q108.2-7.47 108.99-6.76 109.78-6.05 110.95-6.05L110.95-6.05 122.36-6.05 122.36 0 110.91 0Q109.59 0 108.06-0.46 106.54-0.93 105.23-1.97 103.92-3 103.04-4.68 102.17-6.35 102.17-8.74L102.17-8.74 102.17-17.65Q102.17-18.97 102.63-20.5 103.09-22.02 104.13-23.33 105.17-24.63 106.84-25.51 108.51-26.39 110.91-26.39L110.91-26.39 122.36-26.39Q123.67-26.39 125.2-25.93 126.73-25.46 128.03-24.43 129.34-23.39 130.22-21.72 131.1-20.04 131.1-17.65ZM187.98-26.39L195.08-26.39Q193.57-23 191.81-19.71 190.05-16.43 188.13-13.5 186.22-10.57 184.22-8.09 182.21-5.62 180.25-3.82 178.28-2.03 176.42-1.01 174.55 0 172.89 0L172.89 0Q172.2 0 171.62-0.24 171.03-0.49 170.59-0.92 170.15-1.34 169.91-1.93 169.67-2.51 169.67-3.2L169.67-3.2 169.67-15.04 157.07-0.95Q156.58-0.46 156.01-0.23 155.43 0 154.82 0L154.82 0Q154.16 0 153.59-0.24 153.01-0.49 152.58-0.92 152.14-1.34 151.88-1.93 151.62-2.51 151.62-3.2L151.62-3.2 151.62-26.39 157.97-26.39 157.97-11.35 170.62-25.49Q171.3-26.17 172.24-26.35 173.18-26.54 174.08-26.15L174.08-26.15Q174.99-25.78 175.51-24.99 176.04-24.19 176.04-23.24L176.04-23.24 176.04-8.15Q178.09-10.13 179.75-12.33 181.41-14.53 182.84-16.86 184.26-19.19 185.52-21.59 186.78-24 187.98-26.39L187.98-26.39ZM226.62-17.5L226.62 0 220.27 0 220.27-17.5Q220.27-18.75 219.64-19.4 219-20.04 217.73-20.04L217.73-20.04 206.28-20.04 206.28-26.39 217.73-26.39Q218.64-26.39 219.64-26.18 220.64-25.98 221.63-25.54 222.62-25.1 223.52-24.4 224.42-23.71 225.11-22.72 225.79-21.73 226.21-20.43 226.62-19.14 226.62-17.5L226.62-17.5ZM203.72-37.55L203.72 0 197.37 0 197.37-37.55 203.72-37.55ZM238.87-37.55L238.87-31.81 232.53-31.81 232.53-37.55 238.87-37.55ZM238.87-26.39L238.87 0 232.53 0 232.53-26.39 238.87-26.39ZM270.46-8.91L270.46-8.91Q270.46-7.28 270.05-5.97 269.63-4.66 268.95-3.67 268.27-2.69 267.36-1.99 266.46-1.29 265.47-0.85 264.48-0.42 263.47-0.21 262.46 0 261.55 0L261.55 0 244.36 0 244.36-6.35 261.5-6.35Q262.8-6.35 263.46-7.01 264.12-7.67 264.12-8.91L264.12-8.91Q263.99-11.45 261.55-11.45L261.55-11.45 251.71-11.45Q249.61-11.45 248.15-12.18 246.68-12.92 245.77-14.01 244.85-15.11 244.45-16.38 244.05-17.65 244.05-18.75L244.05-18.75Q244.05-20.87 244.8-22.33 245.56-23.78 246.71-24.68 247.86-25.59 249.2-25.99 250.54-26.39 251.71-26.39L251.71-26.39 267.31-26.39 267.31-20.04 251.76-20.04Q251.27-20.04 250.99-19.93 250.71-19.82 250.58-19.64 250.44-19.46 250.42-19.25 250.4-19.04 250.4-18.85L250.4-18.85Q250.42-18.46 250.54-18.24 250.66-18.02 250.85-17.92 251.03-17.82 251.26-17.81 251.49-17.8 251.71-17.8L251.71-17.8 261.55-17.8Q263.99-17.8 265.7-16.92 267.41-16.04 268.46-14.71 269.51-13.38 269.99-11.82 270.46-10.25 270.46-8.91ZM304.01-17.5L304.01-8.91Q304.01-7.28 303.59-5.97 303.18-4.66 302.49-3.67 301.81-2.69 300.91-1.99 300-1.29 299.01-0.85 298.02-0.42 297.02-0.21 296.02 0 295.12 0L295.12 0 283.67 0 283.67-6.35 295.12-6.35Q296.39-6.35 297.02-7.01 297.66-7.67 297.66-8.91L297.66-8.91 297.66-17.46Q297.66-18.77 297.01-19.41 296.36-20.04 295.12-20.04L295.12-20.04 283.72-20.04Q282.42-20.04 281.76-19.4 281.11-18.75 281.11-17.5L281.11-17.5 281.11 8.25 274.76 8.25 274.76-17.5Q274.76-19.14 275.17-20.43 275.59-21.73 276.28-22.72 276.98-23.71 277.88-24.4 278.79-25.1 279.77-25.54 280.76-25.98 281.78-26.18 282.79-26.39 283.67-26.39L283.67-26.39 295.12-26.39Q296.75-26.39 298.05-25.98 299.34-25.56 300.33-24.88 301.32-24.19 302.02-23.29 302.71-22.39 303.15-21.4 303.59-20.41 303.8-19.41 304.01-18.41 304.01-17.5L304.01-17.5ZM337.82-17.65L337.82-17.65Q337.82-16.33 337.35-14.81 336.89-13.28 335.85-11.98 334.81-10.67 333.14-9.79 331.47-8.91 329.08-8.91L329.08-8.91 317.63-8.91 317.63-14.94 329.08-14.94Q330.37-14.94 331.08-15.73 331.79-16.53 331.79-17.7L331.79-17.7Q331.79-18.95 330.99-19.65 330.2-20.36 329.08-20.36L329.08-20.36 317.63-20.36Q316.33-20.36 315.62-19.57 314.92-18.77 314.92-17.6L314.92-17.6 314.92-8.74Q314.92-7.47 315.71-6.76 316.5-6.05 317.68-6.05L317.68-6.05 329.08-6.05 329.08 0 317.63 0Q316.31 0 314.78-0.46 313.26-0.93 311.95-1.97 310.64-3 309.77-4.68 308.89-6.35 308.89-8.74L308.89-8.74 308.89-17.65Q308.89-18.97 309.35-20.5 309.81-22.02 310.85-23.33 311.89-24.63 313.56-25.51 315.23-26.39 317.63-26.39L317.63-26.39 329.08-26.39Q330.39-26.39 331.92-25.93 333.45-25.46 334.75-24.43 336.06-23.39 336.94-21.72 337.82-20.04 337.82-17.65ZM365.18-26.39L365.18-20.04 350.9-20.04Q349.61-20.04 348.95-19.4 348.29-18.75 348.29-17.5L348.29-17.5 348.29 0 341.94 0 341.94-17.5Q341.94-19.14 342.36-20.43 342.77-21.73 343.47-22.72 344.16-23.71 345.07-24.4 345.97-25.1 346.96-25.54 347.95-25.98 348.96-26.18 349.97-26.39 350.85-26.39L350.85-26.39 365.18-26.39ZM397.65-17.65L397.65-17.65Q397.65-16.33 397.19-14.81 396.72-13.28 395.69-11.98 394.65-10.67 392.98-9.79 391.3-8.91 388.91-8.91L388.91-8.91 377.46-8.91 377.46-14.94 388.91-14.94Q390.2-14.94 390.91-15.73 391.62-16.53 391.62-17.7L391.62-17.7Q391.62-18.95 390.83-19.65 390.03-20.36 388.91-20.36L388.91-20.36 377.46-20.36Q376.17-20.36 375.46-19.57 374.75-18.77 374.75-17.6L374.75-17.6 374.75-8.74Q374.75-7.47 375.54-6.76 376.34-6.05 377.51-6.05L377.51-6.05 388.91-6.05 388.91 0 377.46 0Q376.14 0 374.62-0.46 373.09-0.93 371.78-1.97 370.48-3 369.6-4.68 368.72-6.35 368.72-8.74L368.72-8.74 368.72-17.65Q368.72-18.97 369.18-20.5 369.65-22.02 370.69-23.33 371.72-24.63 373.4-25.51 375.07-26.39 377.46-26.39L377.46-26.39 388.91-26.39Q390.23-26.39 391.75-25.93 393.28-25.46 394.59-24.43 395.89-23.39 396.77-21.72 397.65-20.04 397.65-17.65ZM425.02-26.39L425.02-20.04 410.73-20.04Q409.44-20.04 408.78-19.4 408.12-18.75 408.12-17.5L408.12-17.5 408.12 0 401.77 0 401.77-17.5Q401.77-19.14 402.19-20.43 402.6-21.73 403.3-22.72 404-23.71 404.9-24.4 405.8-25.1 406.79-25.54 407.78-25.98 408.79-26.18 409.81-26.39 410.69-26.39L410.69-26.39 425.02-26.39Z" opacity="1" transform="matrix(1,0,0,1,0,0)" fill="#ca3433" class="slogan-text-1" data-fill-palette-color="secondary" id="text-1"></path></svg></g></svg></g></svg></g></svg></g><g></g></svg></g></svg></g></svg></g></svg></g><defs></defs></svg><rect width="320" height="360" fill="none" stroke="none" visibility="hidden"></rect></g></svg></g></svg>